<svg width="800" height="800" viewBox="0 0 800 800" fill="none" xmlns="http://www.w3.org/2000/svg">
<g clipPath="url(#clip0_3001_2185)">
<path d="M-1.2489e-05 514.286L-2.49779e-06 742.857C-1.11835e-06 774.415 25.5848 800 57.1429 800L285.714 800C317.272 800 342.857 774.415 342.857 742.857L342.857 514.286C342.857 482.728 317.272 457.143 285.714 457.143L57.1428 457.143C25.5847 457.143 -1.38684e-05 482.728 -1.2489e-05 514.286Z" fill="#7695FF"/>
<path d="M-1.2489e-05 57.1429L-2.49779e-06 285.714C-1.11835e-06 317.272 25.5848 342.857 57.1429 342.857L285.714 342.857C317.272 342.857 342.857 317.272 342.857 285.714L342.857 57.1429C342.857 25.5848 317.272 1.9987e-05 285.714 2.13665e-05L57.1428 3.13576e-05C25.5847 3.27371e-05 -1.38684e-05 25.5848 -1.2489e-05 57.1429Z" fill="#1E1E1E"/>
<path d="M457.143 57.1428L457.143 285.714C457.143 317.272 482.728 342.857 514.286 342.857L742.857 342.857C774.415 342.857 800 317.272 800 285.714L800 57.1428C800 25.5847 774.415 -4.10481e-05 742.857 -3.96687e-05L514.286 -2.96775e-05C482.728 -2.82981e-05 457.143 25.5847 457.143 57.1428Z" fill="#EEFFFF"/>
<path d="M225.962 523L300.44 652C323.534 692 294.666 742 248.478 742H99.5219C53.3338 742 24.4663 692 47.5603 652L122.038 523C145.132 483 202.868 483 225.962 523Z" stroke="white" stroke-width="20"/>
<circle cx="171.5" cy="171.5" r="125.5" transform="rotate(-90 171.5 171.5)" stroke="white" stroke-width="20"/>
<circle cx="628.5" cy="170.5" r="125.5" transform="rotate(-90 628.5 170.5)" stroke="#EBEBEB" stroke-width="20"/>
<path d="M628.5 45C653.322 45 677.586 52.3604 698.224 66.1506C718.862 79.9407 734.948 99.5411 744.447 122.473C753.946 145.405 756.431 170.639 751.589 194.984C746.746 219.328 734.793 241.69 717.242 259.242C699.69 276.793 677.328 288.746 652.984 293.588C628.639 298.431 603.405 295.946 580.473 286.447C557.541 276.948 537.941 260.862 524.151 240.224C510.36 219.586 503 195.322 503 170.5" stroke="#7695FF" stroke-width="14" stroke-linecap="round"/>
</g>
<defs>
<clipPath id="clip0_3001_2185">
<rect width="800" height="800" fill="white" transform="translate(0 800) rotate(-90)"/>
</clipPath>
</defs>
</svg>
